<svg width="1440" height="1024" viewBox="0 0 1440 1024" fill="none" xmlns="http://www.w3.org/2000/svg">
<g clip-path="url(#clip0_966_24839)">
<mask id="mask0_966_24839" style="mask-type:luminance" maskUnits="userSpaceOnUse" x="0" y="0" width="1440" height="1024">
<path d="M1440 0H0V1024H1440V0Z" fill="white"/>
</mask>
<g mask="url(#mask0_966_24839)">
<path d="M1440 0H0V1024H1440V0Z" fill="white"/>
<g opacity="0.2">
<path d="M124.273 778.849L92.125 840.067H156.421L124.273 778.849Z" fill="#78A179"/>
<path d="M124.239 891.032C142.137 891.032 157.299 879.176 162.201 862.874H86.3906C91.1786 879.176 106.341 891.032 124.239 891.032Z" fill="#78A179"/>
<path d="M238.363 677.042C108.859 667.124 9.33691 561.674 8.31091 560.648C6.14491 558.254 3.18091 557 -0.0110931 557C-3.20309 557 -6.16708 558.254 -8.33308 560.648C-9.35909 561.674 -108.539 667.124 -238.385 677.042C-244.313 677.498 -248.873 682.514 -248.873 688.442V774.056C-248.873 891.248 -199.967 998.066 -114.809 1067.26C-80.2671 1095.31 -42.761 1115.14 -3.0891 1126.54C-2.0631 1126.89 -1.03709 1127 -0.0110931 1127C1.01491 1127 2.15492 1126.89 3.18092 1126.54C42.739 1115.14 80.245 1095.31 114.787 1067.26C199.945 998.066 248.851 891.248 248.851 774.056V688.442C248.851 682.514 244.291 677.498 238.363 677.042ZM-61.7991 851.462C-61.7991 851.348 -61.7991 851.348 -61.7991 851.234C-61.9131 851.348 -61.7991 851.462 -61.7991 851.462ZM186.607 851.69V851.918C186.379 886.118 158.449 913.82 124.249 913.82C90.049 913.82 62.1189 886.118 61.8909 851.918C61.8909 851.804 61.8909 851.804 61.8909 851.69C61.8909 851.462 61.8909 851.348 61.8909 851.12C61.8909 849.866 62.2329 848.726 62.575 847.586C62.689 847.244 62.8029 847.016 62.9169 846.674C63.0309 846.446 63.0309 846.332 63.145 846.104L105.325 765.734H11.3889V936.62H43.309C49.5789 936.62 54.709 941.75 54.709 948.02C54.709 954.29 49.5789 959.42 43.309 959.42H-0.0110931H-43.3311C-49.6011 959.42 -54.731 954.29 -54.731 948.02C-54.731 941.75 -49.6011 936.62 -43.3311 936.62H-11.4111V765.734H-105.347L-63.1671 846.104C-63.0531 846.332 -63.0531 846.446 -62.9391 846.674C-62.8251 846.902 -62.711 847.244 -62.597 847.586C-62.1411 848.726 -61.9131 849.866 -61.9131 851.12V851.69V851.918C-62.1411 886.118 -90.0711 913.82 -124.271 913.82C-158.471 913.82 -186.401 886.118 -186.629 851.918C-186.629 851.804 -186.629 851.804 -186.629 851.69C-186.629 851.462 -186.629 851.348 -186.629 851.12C-186.629 849.866 -186.287 848.726 -185.945 847.586C-185.831 847.244 -185.717 847.016 -185.603 846.674C-185.489 846.446 -185.489 846.332 -185.375 846.104L-134.417 748.976C-133.961 748.064 -133.277 747.266 -132.593 746.468C-130.541 744.302 -127.577 742.82 -124.385 742.82H-11.4111V724.922C-11.4111 718.652 -6.2811 713.522 -0.0110931 713.522C6.25891 713.522 11.3889 718.652 11.3889 724.922V742.82H124.249C127.555 742.82 130.519 744.302 132.685 746.696C133.369 747.38 133.939 748.064 134.395 748.976L185.353 846.104C185.467 846.332 185.467 846.446 185.581 846.674C185.695 846.902 185.809 847.244 185.923 847.586C186.379 848.726 186.607 849.866 186.607 851.12C186.607 851.234 186.721 851.348 186.721 851.462C186.607 851.576 186.607 851.69 186.607 851.69Z" fill="#78A179"/>
<path d="M186.645 851.699C186.645 851.585 186.645 851.471 186.645 851.471C186.645 851.357 186.531 851.243 186.531 851.129C186.645 851.357 186.645 851.585 186.645 851.699Z" fill="#78A179"/>
</g>
<g opacity="0.2">
<path d="M1037.1 210.061H1102.87C1098.43 206.763 1095.6 201.731 1095.09 196.224H1021.4C1021.89 200.042 1023.76 203.553 1026.65 206.099C1029.54 208.645 1033.25 210.054 1037.1 210.061Z" fill="#18551A"/>
<path d="M1073.21 165.5L1073.32 163.556L1071.59 162.685C1071.21 162.49 1070.89 162.178 1070.7 161.793L1069.83 160.069L1067.88 160.175C1067.45 160.199 1067.02 160.083 1066.66 159.845L1065.05 158.782L1063.44 159.845C1063.08 160.083 1062.65 160.2 1062.22 160.175L1060.27 160.069L1059.4 161.793C1059.21 162.178 1058.89 162.49 1058.51 162.685L1056.78 163.556L1056.89 165.5C1056.91 165.933 1056.8 166.361 1056.56 166.722L1055.5 168.335L1056.56 169.947V169.946C1056.8 170.308 1056.91 170.736 1056.89 171.168L1056.78 173.113L1058.51 173.985V173.983C1058.89 174.178 1059.21 174.49 1059.4 174.875L1060.27 176.6L1062.21 176.493C1062.25 176.491 1062.29 176.49 1062.33 176.49C1062.72 176.49 1063.11 176.606 1063.44 176.824L1065.05 177.887L1066.66 176.824C1067.02 176.585 1067.45 176.469 1067.88 176.493L1069.83 176.6L1070.7 174.875C1070.89 174.49 1071.21 174.178 1071.59 173.983L1073.32 173.111L1073.21 171.167C1073.19 170.735 1073.3 170.308 1073.54 169.946L1074.6 168.333L1073.54 166.721V166.722C1073.3 166.361 1073.19 165.933 1073.21 165.5Z" fill="#18551A"/>
<path d="M1098.44 192.805C1098.82 193.194 1099.03 193.717 1099.03 194.259C1099.03 198.451 1100.7 202.471 1103.66 205.435C1106.63 208.399 1110.65 210.063 1114.84 210.06H1114.89C1123.62 210.06 1130.77 203.055 1130.77 194.335V99.9462L1043.01 99.8088L1042.32 192.185H1097.01C1097.55 192.195 1098.07 192.417 1098.44 192.803V192.805ZM1052.89 117.09L1078.55 116.513C1079.66 116.488 1080.59 117.373 1080.61 118.487C1080.64 119.601 1079.76 120.525 1078.64 120.551L1052.98 121.127H1052.94C1051.82 121.14 1050.91 120.245 1050.9 119.13C1050.89 118.017 1051.78 117.102 1052.89 117.091V117.09ZM1052.94 125.882H1118.96C1120.07 125.882 1120.97 126.787 1120.97 127.901C1120.97 129.015 1120.07 129.919 1118.96 129.919H1052.94C1051.82 129.919 1050.92 129.015 1050.92 127.901C1050.92 126.787 1051.82 125.882 1052.94 125.882ZM1052.94 135.107H1118.96C1120.07 135.107 1120.97 136.012 1120.97 137.126C1120.97 138.24 1120.07 139.144 1118.96 139.144H1052.94C1051.82 139.144 1050.92 138.24 1050.92 137.126C1050.92 136.012 1051.82 135.107 1052.94 135.107ZM1052.94 144.332H1118.96C1120.07 144.332 1120.97 145.237 1120.97 146.35C1120.97 147.465 1120.07 148.369 1118.96 148.369H1052.94C1051.82 148.369 1050.92 147.465 1050.92 146.35C1050.92 145.237 1051.82 144.332 1052.94 144.332ZM1111.45 171.622C1111.34 172.732 1110.36 173.545 1109.25 173.438L1103.2 172.861V172.862C1102.86 172.83 1102.54 172.715 1102.26 172.528L1098.51 170.008L1096.8 168.876C1092.04 174.025 1091.18 174.025 1090.41 174.025C1089.84 174.025 1088.3 174.025 1086.3 170.027C1085.82 169.032 1086.22 167.829 1087.21 167.334C1088.2 166.838 1089.41 167.234 1089.91 168.222C1090.12 168.63 1090.35 169.028 1090.59 169.413C1091.71 168.386 1093.5 166.525 1094.97 164.892C1095.64 164.15 1096.75 164.008 1097.58 164.557L1100.75 166.65L1104.09 168.895L1109.63 169.422C1110.17 169.473 1110.66 169.734 1111 170.146C1111.34 170.559 1111.5 171.09 1111.45 171.622ZM1078.7 169.445L1077.28 171.612L1077.42 174.208C1077.46 175.008 1077.03 175.759 1076.32 176.121L1074 177.288L1072.84 179.598C1072.48 180.315 1071.73 180.749 1070.93 180.703L1068.33 180.559L1066.16 181.987V181.988C1065.49 182.432 1064.61 182.432 1063.94 181.988L1061.77 180.56L1059.18 180.704C1058.38 180.748 1057.63 180.314 1057.27 179.598L1056.1 177.288L1053.79 176.121C1053.07 175.759 1052.64 175.008 1052.69 174.208L1052.83 171.612L1051.4 169.445C1050.96 168.771 1050.96 167.898 1051.4 167.224L1052.83 165.058L1052.68 162.461H1052.69C1052.64 161.661 1053.07 160.91 1053.79 160.549L1056.1 159.381L1057.27 157.071V157.072C1057.63 156.356 1058.38 155.921 1059.18 155.966L1061.78 156.111L1063.94 154.682C1064.62 154.237 1065.49 154.237 1066.16 154.682L1068.33 156.111L1070.93 155.966C1071.73 155.922 1072.48 156.356 1072.84 157.072L1074.01 159.382L1076.32 160.55V160.549C1077.03 160.91 1077.47 161.661 1077.42 162.461L1077.28 165.058L1078.71 167.224C1079.15 167.898 1079.15 168.771 1078.7 169.445ZM1083.5 178.35C1083.5 177.235 1084.4 176.332 1085.51 176.332H1115.78C1116.9 176.332 1117.8 177.235 1117.8 178.35C1117.8 179.465 1116.9 180.368 1115.78 180.368H1085.51C1084.4 180.368 1083.5 179.465 1083.5 178.35Z" fill="#18551A"/>
</g>
<g opacity="0.2">
<path d="M1165.17 853.253C1165.17 859.982 1159.72 865.438 1152.99 865.438C1146.26 865.438 1140.8 859.982 1140.8 853.253C1140.8 846.524 1146.26 841.07 1152.99 841.07C1159.72 841.07 1165.17 846.524 1165.17 853.253Z" fill="#1F2937"/>
<path d="M1168.94 870.532C1169.23 869.963 1169.69 869.5 1170.26 869.212L1175.78 866.428L1175.43 860.225C1175.4 859.585 1175.57 858.951 1175.92 858.416L1179.33 853.254L1175.92 848.091C1175.57 847.556 1175.4 846.923 1175.43 846.284L1175.78 840.082L1170.26 837.297C1169.69 837.01 1169.23 836.547 1168.94 835.978L1166.16 830.465L1159.96 830.807C1159.32 830.842 1158.68 830.671 1158.15 830.317L1152.99 826.915L1147.82 830.319V830.317C1147.29 830.671 1146.66 830.842 1146.02 830.807L1139.81 830.465L1137.03 835.978C1136.74 836.547 1136.28 837.009 1135.71 837.297L1130.2 840.082L1130.54 846.284C1130.57 846.923 1130.4 847.558 1130.05 848.091L1126.65 853.254L1130.05 858.416V858.418C1130.4 858.951 1130.57 859.587 1130.54 860.225L1130.2 866.428L1135.71 869.212C1136.28 869.5 1136.74 869.963 1137.03 870.532L1139.81 876.045L1146.02 875.703C1146.07 875.699 1146.12 875.698 1146.18 875.698C1146.76 875.698 1147.34 875.87 1147.82 876.192L1152.99 879.595L1158.15 876.192C1158.68 875.838 1159.32 875.667 1159.96 875.703L1166.16 876.045L1168.94 870.532ZM1152.99 871.412C1148.17 871.412 1143.55 869.498 1140.15 866.094C1136.74 862.688 1134.83 858.069 1134.83 853.254C1134.83 848.439 1136.74 843.82 1140.15 840.416C1143.55 837.009 1148.17 835.097 1152.99 835.097C1157.8 835.097 1162.42 837.009 1165.83 840.416C1169.23 843.82 1171.14 848.439 1171.14 853.254C1171.14 858.068 1169.22 862.683 1165.82 866.087C1162.42 869.492 1157.8 871.406 1152.99 871.412Z" fill="#1F2937"/>
<path d="M1154.44 910.123L1165.36 916.845V881.995L1160.51 881.723L1154.64 885.667C1154.16 885.989 1153.59 886.16 1153.01 886.16C1152.44 886.16 1151.87 885.989 1151.39 885.667L1145.46 881.723L1140.61 881.995V916.845L1151.48 910.121V910.123C1152.38 909.54 1153.54 909.54 1154.44 910.123Z" fill="#1F2937"/>
<path d="M1080.63 900.528C1085.57 900.531 1090.3 898.5 1093.71 894.909C1097.26 891.188 1099.24 886.236 1099.23 881.09V840.358H1062.11V881.09C1062.06 886.226 1064.01 891.18 1067.54 894.909C1070.94 898.5 1075.68 900.531 1080.63 900.528Z" fill="#1F2937"/>
<path d="M1237.89 883.583V733.269H1105.2V881.094C1105.22 887.777 1102.65 894.208 1098.02 899.037C1097.51 899.567 1096.96 900.062 1096.38 900.521H1134.64V878.641L1132.24 874.106L1125.76 870.882C1124.7 870.347 1124.06 869.238 1124.13 868.052L1124.52 860.885L1120.58 854.902C1119.92 853.905 1119.92 852.612 1120.58 851.615L1124.52 845.632L1124.13 838.465V838.463C1124.06 837.279 1124.7 836.168 1125.76 835.635L1132.14 832.413L1135.36 826.034C1135.9 824.975 1137.01 824.332 1138.19 824.398L1145.36 824.793L1151.34 820.848V820.847C1152.34 820.189 1153.63 820.189 1154.63 820.847L1160.61 824.791L1167.78 824.397V824.398C1168.97 824.331 1170.08 824.972 1170.61 826.033L1173.83 832.411L1180.21 835.633V835.635C1181.27 836.168 1181.91 837.279 1181.85 838.463L1181.45 845.631L1185.39 851.613V851.615C1186.05 852.612 1186.05 853.905 1185.39 854.902L1181.44 860.885L1181.82 868.052C1181.87 869.241 1181.22 870.351 1180.16 870.881L1173.73 874.104L1171.33 878.642V900.521H1221.8C1230.67 900.521 1237.89 892.93 1237.89 883.585V883.583ZM1184.56 804.521H1122.27C1120.62 804.521 1119.28 803.185 1119.28 801.535C1119.28 799.886 1120.62 798.549 1122.27 798.549H1184.56C1186.21 798.549 1187.54 799.886 1187.54 801.535C1187.54 803.185 1186.21 804.521 1184.56 804.521ZM1216.13 788.736H1122.27C1120.62 788.736 1119.28 787.398 1119.28 785.748C1119.28 784.1 1120.62 782.762 1122.27 782.762H1216.13C1217.78 782.762 1219.12 784.1 1219.12 785.748C1219.12 787.398 1217.78 788.736 1216.13 788.736ZM1216.13 773.375H1122.27C1120.62 773.375 1119.28 772.039 1119.28 770.389C1119.28 768.74 1120.62 767.402 1122.27 767.402H1216.13C1217.78 767.402 1219.12 768.74 1219.12 770.389C1219.12 772.039 1217.78 773.375 1216.13 773.375Z" fill="#1F2937"/>
</g>
</g>
</g>
<defs>
<clipPath id="clip0_966_24839">
<rect width="1440" height="1024" fill="white"/>
</clipPath>
</defs>
</svg>
