<svg width="191" height="24" viewBox="0 0 191 24" fill="none" xmlns="http://www.w3.org/2000/svg">
<g id="Product name">
<path d="M5.30953 23.6694H0L8.09017 0.31924H14.4753L22.5541 23.6694H17.2445L11.3743 5.65511H11.1912L5.30953 23.6694ZM4.97768 14.4912H17.5192V18.3449H4.97768V14.4912Z" fill="#126D4E"/>
<path d="M39.8501 0.31924H44.8049V15.4831C44.8049 17.1857 44.3967 18.6755 43.5805 19.9525C42.7718 21.2295 41.639 22.2252 40.1819 22.9397C38.7248 23.6466 37.0275 24 35.0898 24C33.1445 24 31.4433 23.6466 29.9862 22.9397C28.5292 22.2252 27.3963 21.2295 26.5877 19.9525C25.7791 18.6755 25.3747 17.1857 25.3747 15.4831V0.31924H30.3295V15.0613C30.3295 15.9506 30.5241 16.7411 30.9131 17.4328C31.3098 18.1245 31.8667 18.6679 32.5838 19.0632C33.3009 19.4584 34.1362 19.6561 35.0898 19.6561C36.051 19.6561 36.8863 19.4584 37.5958 19.0632C38.3129 18.6679 38.866 18.1245 39.255 17.4328C39.6517 16.7411 39.8501 15.9506 39.8501 15.0613V0.31924Z" fill="#126D4E"/>
<path d="M57.189 23.6694H48.8814V0.31924H57.2577C59.6149 0.31924 61.6441 0.786699 63.3453 1.72162C65.0465 2.64893 66.3548 3.9829 67.2702 5.72352C68.1933 7.46413 68.6548 9.54679 68.6548 11.9715C68.6548 14.4038 68.1933 16.4941 67.2702 18.2423C66.3548 19.9905 65.0389 21.3321 63.3224 22.267C61.6136 23.2019 59.5691 23.6694 57.189 23.6694ZM53.8362 19.4394H56.983C58.4477 19.4394 59.6797 19.181 60.6791 18.6641C61.6861 18.1397 62.4413 17.3302 62.9448 16.2356C63.4559 15.1335 63.7115 13.7121 63.7115 11.9715C63.7115 10.2461 63.4559 8.83611 62.9448 7.74157C62.4413 6.64703 61.6899 5.84133 60.6905 5.32447C59.6912 4.8076 58.4592 4.54917 56.9945 4.54917H53.8362V19.4394Z" fill="#126D4E"/>
<path d="M77.28 0.31924V23.6694H72.3252V0.31924H77.28Z" fill="#126D4E"/>
<path d="M80.464 4.38955V0.31924H99.711V4.38955H92.5363V23.6694H87.6387V4.38955H80.464Z" fill="#126D4E"/>
<path d="M102.881 23.6694V0.31924H112.127C113.896 0.31924 115.407 0.63468 116.658 1.26556C117.917 1.88884 118.874 2.77435 119.53 3.92209C120.194 5.06223 120.526 6.4038 120.526 7.94679C120.526 9.49739 120.19 10.8314 119.519 11.9487C118.847 13.0584 117.875 13.9097 116.601 14.5026C115.334 15.0955 113.801 15.3919 112.001 15.3919H105.81V11.4242H111.2C112.146 11.4242 112.931 11.295 113.557 11.0366C114.183 10.7781 114.648 10.3905 114.953 9.87364C115.266 9.35677 115.422 8.71449 115.422 7.94679C115.422 7.1715 115.266 6.51781 114.953 5.98575C114.648 5.45368 114.179 5.05083 113.546 4.7772C112.92 4.49596 112.13 4.35535 111.177 4.35535H107.836V23.6694H102.881ZM115.537 13.0432L121.361 23.6694H115.891L110.193 13.0432H115.537Z" fill="#1F2937"/>
<path d="M128.067 23.6694H122.757L130.847 0.31924H137.232L145.311 23.6694H140.002L134.131 5.65511H133.948L128.067 23.6694ZM127.735 14.4912H140.276V18.3449H127.735V14.4912Z" fill="#1F2937"/>
<path d="M167.708 8.49406H162.696C162.604 7.84798 162.417 7.27411 162.135 6.77245C161.853 6.26318 161.491 5.82993 161.048 5.47268C160.606 5.11544 160.094 4.8418 159.515 4.65178C158.943 4.46176 158.321 4.36675 157.65 4.36675C156.437 4.36675 155.38 4.66698 154.48 5.26746C153.58 5.86033 152.882 6.72684 152.386 7.86698C151.89 8.99953 151.642 10.3753 151.642 11.9943C151.642 13.6589 151.89 15.0575 152.386 16.19C152.889 17.3226 153.591 18.1777 154.491 18.7553C155.391 19.333 156.433 19.6219 157.615 19.6219C158.279 19.6219 158.893 19.5344 159.458 19.3596C160.03 19.1848 160.537 18.9302 160.979 18.5957C161.422 18.2537 161.788 17.8394 162.078 17.353C162.375 16.8665 162.581 16.3116 162.696 15.6884L167.708 15.7112C167.578 16.7829 167.254 17.8166 166.735 18.8124C166.224 19.8005 165.534 20.686 164.664 21.4689C163.802 22.2442 162.772 22.8599 161.574 23.3159C160.384 23.7644 159.038 23.9886 157.535 23.9886C155.445 23.9886 153.576 23.5173 151.928 22.5748C150.288 21.6323 148.991 20.2679 148.037 18.4817C147.091 16.6955 146.619 14.533 146.619 11.9943C146.619 9.44798 147.099 7.28171 148.06 5.49549C149.022 3.70926 150.326 2.34869 151.974 1.41378C153.622 0.471259 155.475 0 157.535 0C158.893 0 160.152 0.190024 161.311 0.570071C162.478 0.950119 163.512 1.50499 164.412 2.23468C165.312 2.95677 166.045 3.84228 166.609 4.89121C167.181 5.94014 167.548 7.14109 167.708 8.49406Z" fill="#1F2937"/>
<path d="M171.261 23.6694V0.31924H176.216V10.6147H176.525L184.958 0.31924H190.897L182.2 10.7743L191 23.6694H185.073L178.653 14.0694L176.216 17.0337V23.6694H171.261Z" fill="#1F2937"/>
</g>
</svg>
